<svg width="374" height="87" viewBox="0 0 374 87" fill="none" xmlns="http://www.w3.org/2000/svg">
<path d="M0.564075 72V0.479994H45.8761V14.784H17.7481V28.032H41.6521V42.432H17.7481V57.6H46.9321V72H0.564075ZM72.6168 72.896C63.1448 72.896 55.8488 66.112 55.8488 54.464C55.8488 42.688 63.9768 35.904 73.2568 35.904C77.7368 35.904 81.0008 37.696 83.4968 40L79.9128 44.736C77.9928 43.072 76.0088 42.048 73.6408 42.048C67.6248 42.048 63.4648 46.976 63.4648 54.464C63.4648 61.888 67.4968 66.816 73.3848 66.816C76.3288 66.816 78.9528 65.408 81.0648 63.616L84.0728 68.544C80.8728 71.36 76.7128 72.896 72.6168 72.896ZM103.55 72.896C94.7818 72.896 86.9738 66.112 86.9738 54.464C86.9738 42.688 94.7818 35.904 103.55 35.904C112.254 35.904 120.126 42.688 120.126 54.464C120.126 66.112 112.254 72.896 103.55 72.896ZM103.55 66.816C109.054 66.816 112.574 61.888 112.574 54.464C112.574 46.976 109.054 42.048 103.55 42.048C97.9818 42.048 94.5898 46.976 94.5898 54.464C94.5898 61.888 97.9818 66.816 103.55 66.816ZM144.372 72V32.384C144.372 25.216 147.7 20.16 155.508 20.16C157.94 20.16 160.18 20.672 161.78 21.312L160.308 26.944C159.028 26.304 157.684 26.048 156.404 26.048C153.332 26.048 151.732 28.096 151.732 32.384V72H144.372ZM139.572 42.688V37.184L144.756 36.8H158.9V42.688H139.572ZM165.281 72V36.8H171.297L171.937 43.136H172.129C174.625 38.592 178.337 35.904 182.113 35.904C183.841 35.904 184.929 36.16 186.017 36.672L184.737 43.072C183.521 42.688 182.625 42.496 181.153 42.496C178.337 42.496 174.881 44.544 172.705 50.112V72H165.281ZM191.468 72V36.8H198.892V72H191.468ZM195.18 30.208C192.428 30.208 190.636 28.48 190.636 25.792C190.636 23.168 192.428 21.44 195.18 21.44C197.868 21.44 199.788 23.168 199.788 25.792C199.788 28.48 197.868 30.208 195.18 30.208ZM224.626 72.896C215.026 72.896 207.474 66.048 207.474 54.464C207.474 43.008 215.346 35.904 223.538 35.904C232.818 35.904 237.874 42.624 237.874 52.608C237.874 54.08 237.746 55.488 237.554 56.384H214.706C215.282 63.104 219.506 67.072 225.586 67.072C228.722 67.072 231.346 66.112 233.97 64.448L236.53 69.184C233.266 71.36 229.234 72.896 224.626 72.896ZM214.578 51.264H231.474C231.474 45.184 228.786 41.728 223.666 41.728C219.25 41.728 215.346 45.12 214.578 51.264ZM246.156 72V36.8H252.172L252.812 41.728H253.004C256.204 38.528 259.852 35.904 264.652 35.904C272.14 35.904 275.468 40.96 275.468 49.856V72H268.044V50.816C268.044 44.672 266.252 42.304 262.156 42.304C258.892 42.304 256.652 43.968 253.58 47.04V72H246.156ZM298.253 72.896C289.421 72.896 283.789 66.112 283.789 54.464C283.789 43.008 291.021 35.904 298.829 35.904C302.861 35.904 305.485 37.44 308.301 39.872L307.981 34.048V21.056H315.405V72H309.325L308.749 68.096H308.557C305.869 70.784 302.221 72.896 298.253 72.896ZM300.045 66.752C302.925 66.752 305.485 65.408 307.981 62.464V45.312C305.421 42.944 302.925 42.048 300.301 42.048C295.373 42.048 291.405 46.784 291.405 54.336C291.405 62.336 294.541 66.752 300.045 66.752ZM333.766 72.896C328.39 72.896 326.406 69.44 326.406 63.744V21.056H333.83V64.128C333.83 66.112 334.662 66.816 335.558 66.816C335.878 66.816 336.134 66.816 336.774 66.688L337.734 72.256C336.774 72.576 335.622 72.896 333.766 72.896ZM347.132 86.72C345.34 86.72 343.932 86.464 342.716 86.016L344.124 80.256C344.764 80.512 345.788 80.768 346.684 80.768C350.46 80.768 352.764 77.952 354.044 74.176L354.748 71.744L340.796 36.8H348.348L354.812 54.912C355.9 58.048 356.924 61.568 358.076 64.896H358.396C359.228 61.632 360.188 58.176 361.084 54.912L366.78 36.8H373.948L361.02 74.176C358.268 81.664 354.556 86.72 347.132 86.72Z" fill="#79AD4B"/>
</svg>
